<svg width="401" height="547" viewBox="0 0 401 547" fill="none" xmlns="http://www.w3.org/2000/svg">
<path d="M188.787 405.184C224.777 378.397 283.707 417.106 325.698 366.151C367.601 315.355 217.988 167.267 96.2579 237.548C-25.4721 307.829 32.5884 529.228 95.8116 506.564C150.56 486.934 152.78 431.943 188.787 405.184Z" fill="#3D82AD" fill-opacity="0.15"/>
<path d="M37.3254 172.097C57.5695 202.64 55.3571 239.747 32.3556 255.029C9.36543 270.269 -25.6901 257.861 -45.9611 227.334C-66.2051 196.792 -64.0085 159.658 -41.0183 144.418C-18.0281 129.178 17.0813 141.555 37.3254 172.097Z" fill="#3D82AD" fill-opacity="0.15"/>
<path d="M-22.5123 294.142C0.430324 313.937 6.90955 343.987 -7.98236 361.239C-22.9011 378.506 -53.5625 376.434 -76.5051 356.639C-99.4209 336.829 -105.927 306.794 -91.035 289.542C-76.1008 272.302 -45.4549 274.347 -22.5123 294.142Z" fill="#3D82AD" fill-opacity="0.15"/>
<path d="M76.3635 152.673C90.139 186.628 122.006 205.776 147.591 195.403C173.149 185.045 182.73 149.119 168.981 115.148C155.206 81.1929 123.339 62.0451 97.754 72.4185C72.1686 82.792 62.588 118.718 76.3635 152.673Z" fill="#3D82AD" fill-opacity="0.15"/>
<path d="M211.49 168.306C217.161 198.073 239.946 218.709 262.332 214.438C284.719 210.167 298.281 182.563 292.609 152.796C286.911 123.046 264.153 102.394 241.767 106.665C219.354 110.951 205.792 138.556 211.49 168.306Z" fill="#3D82AD" fill-opacity="0.15"/>
</svg>
