<svg width="460" height="547" viewBox="0 0 460 547" fill="none" xmlns="http://www.w3.org/2000/svg">
<path d="M202.791 399.868C243.984 417.644 239.926 488.033 305.049 498.921C369.992 509.811 423.433 306.199 301.703 235.918C179.973 165.637 17.2662 326.618 68.505 370.04C112.879 407.638 161.613 382.066 202.791 399.868Z" fill="#3D82AD" fill-opacity="0.15"/>
<path d="M328.919 152.156C312.59 184.959 279.349 201.596 254.613 189.318C229.92 177.028 223.137 140.465 239.439 107.646C255.768 74.8427 289.025 58.1782 313.718 70.4683C338.412 82.7583 345.248 119.352 328.919 152.156Z" fill="#3D82AD" fill-opacity="0.15"/>
<path d="M193.307 161.358C187.636 191.124 164.851 211.761 142.465 207.49C120.052 203.203 106.516 175.613 112.187 145.847C117.885 116.096 140.644 95.4444 163.03 99.7155C185.427 104.029 198.979 131.592 193.307 161.358Z" fill="#3D82AD" fill-opacity="0.15"/>
<path d="M365.26 176.252C342.742 205.159 342.092 242.33 363.869 259.301C385.618 276.257 421.521 266.591 444.067 237.699C466.585 208.791 467.234 171.62 445.458 154.649C423.682 137.678 387.779 147.344 365.26 176.252Z" fill="#3D82AD" fill-opacity="0.15"/>
<path d="M419.285 301.092C396.342 320.886 389.863 350.937 404.755 368.189C419.646 385.44 450.334 383.383 473.277 363.588C496.192 343.778 502.698 313.743 487.806 296.492C472.888 279.225 442.2 281.282 419.285 301.092Z" fill="#3D82AD" fill-opacity="0.15"/>
</svg>
